<svg xmlns="http://www.w3.org/2000/svg" viewBox="0 0 694.08 133.13"><title>assessment-complete-line</title><g id="Layer_2" data-name="Layer 2"><g id="Layer_1-2" data-name="Layer 1"><path d="M694,64.36c-13.33,5.23-27.22,11.9-40.66,16.9a398.74,398.74,0,0,1-70.15,18.61,525.57,525.57,0,0,1-134.05,6.42c-18.9-1.57-37.25-5.49-55.74-9.57-20.81-4.59-41.56-9.47-62.35-14.13-22.4-5-45-9.06-67.68-12.73-31.91-5.17-64.18-8.94-96.56-8.14A329.51,329.51,0,0,0,73.55,78c-11.4,3.68-22.64,7.92-34.16,11.25-8.53,2.47-17.86,4.78-26.75,3-4.12-.84-9.23-3.54-12.64-6V88.4c14.63,10.45,31.2,5.19,47,.16,12.22-3.88,24.26-8.32,36.53-12a315.15,315.15,0,0,1,49.33-10.86c33.86-4.55,68.11-3,101.91,1.24C262.7,70.44,290.7,75.11,318.21,81,338,85.28,357.65,90,377.37,94.42c17.92,4,35.91,8.46,54.09,11.15,28.59,4.23,58.06,4.11,86.86,2.65,16.06-.81,32.18-2,48.11-4.27a440.82,440.82,0,0,0,74.19-16.52c15.78-5.08,30.92-11.58,46.1-18.18,2.75-1.19,4.49-2,7.28-3.06V64.36" style="fill:#ffddd2"/><path d="M694.08,80.78c-49.6,18.35-102.63,31.16-155.28,36.36a548.62,548.62,0,0,1-149.32-5.72c-39.06-6.88-77.27-17.7-116.2-25.21S194.54,75.6,154.89,79.82c-48,5.11-94.51,20.18-137.58,41.81C11,124.79,6.16,127.35,0,130.76v2.37c44.53-24.67,94.23-43.37,144.79-50.47C185.22,77,225.92,78.89,266,86.09c38.64,6.94,76.46,17.72,115,25A556.8,556.8,0,0,0,522.32,120a613.74,613.74,0,0,0,156.14-31.6c5.6-1.91,10-3.46,15.54-5.51a17,17,0,0,1,.08-2.14" style="fill:#b91f56"/><path d="M566.9,36.2A36.2,36.2,0,1,1,530.7,0a36.19,36.19,0,0,1,36.2,36.2" style="fill:#f15b54"/><path d="M569.46,41.17a36.05,36.05,0,0,1-23,33.45,33.29,33.29,0,0,1-21.1.77A35.5,35.5,0,0,1,507.9,63.62,36.23,36.23,0,0,1,505,22.72c7.43-12.43,22.15-19.5,36.47-16.48A35.86,35.86,0,0,1,569,35.62a36.74,36.74,0,0,1,.42,5.55c0,.81,2.92.78,2.92-.06a36.77,36.77,0,0,0-7-21.49A37.25,37.25,0,0,0,547.74,6.54c-14.79-5.19-32-.88-42.12,11.16a36.82,36.82,0,0,0-3.14,42.58A37.21,37.21,0,0,0,519,74.66a39.28,39.28,0,0,0,23.49,2.48,37.26,37.26,0,0,0,29.43-30.23,37.59,37.59,0,0,0,.46-5.8c0-.81-2.91-.79-2.92.06" style="fill:#3c4866"/></g></g></svg>