<svg width="84" height="84" viewBox="0 0 84 84" fill="none" xmlns="http://www.w3.org/2000/svg">
<path d="M42 0C18.8398 0 0 18.8398 0 42C0 65.1602 18.8398 84 42 84C65.1602 84 84 65.1569 84 42C84 18.8431 65.1602 0 42 0ZM42 77.4934C22.4314 77.4934 6.50655 61.5718 6.50655 42C6.50655 22.4282 22.4314 6.50655 42 6.50655C61.5718 6.50655 77.4934 22.4282 77.4934 42C77.4934 61.5718 61.5686 77.4934 42 77.4934Z" fill="#3C4866"/>
<path d="M61.27 27.3928C59.9459 26.189 57.8866 26.2834 56.6764 27.6139L36.8313 49.4664L27.2438 39.7196C25.9782 38.4378 23.9222 38.4183 22.6436 39.6806C21.3618 40.9396 21.3423 42.9989 22.6046 44.2807L34.6059 56.4806C35.2208 57.1051 36.0536 57.4533 36.9254 57.4533C36.9449 57.4533 36.9678 57.4533 36.9873 57.4566C37.8852 57.437 38.7311 57.0531 39.3329 56.3895L61.491 31.9898C62.6982 30.6558 62.6006 28.5998 61.27 27.3928Z" fill="#3C4866"/>
</svg>
