<svg width="16" height="15" viewBox="0 0 16 15" fill="none" xmlns="http://www.w3.org/2000/svg">
<path d="M2.375 12.375L3.5625 11.1562L4.5 12.0938L3.3125 13.3125L2.375 12.375ZM7.34375 14.9688V13H8.65625V14.9688H7.34375ZM5.15625 4.84375C5.94792 4.05208 6.89583 3.65625 8 3.65625C9.10417 3.65625 10.0417 4.05208 10.8125 4.84375C11.6042 5.61458 12 6.55208 12 7.65625C12 8.76042 11.6042 9.70833 10.8125 10.5C10.0417 11.2708 9.10417 11.6562 8 11.6562C6.89583 11.6562 5.94792 11.2708 5.15625 10.5C4.38542 9.70833 4 8.76042 4 7.65625C4 6.55208 4.38542 5.61458 5.15625 4.84375ZM13.3438 7H15.3438V8.34375H13.3438V7ZM11.5 12.0938L12.4375 11.1875L13.625 12.375L12.6875 13.3125L11.5 12.0938ZM13.625 2.96875L12.4375 4.15625L11.5 3.21875L12.6875 2.03125L13.625 2.96875ZM8.65625 0.375V2.34375H7.34375V0.375H8.65625ZM2.65625 7V8.34375H0.65625V7H2.65625ZM4.5 3.21875L3.5625 4.15625L2.375 2.96875L3.3125 2.03125L4.5 3.21875Z" fill="#D69029"/>
</svg>
