<svg width="12" height="14" viewBox="0 0 12 14" fill="none" xmlns="http://www.w3.org/2000/svg">
<path d="M6 12.0625V2.40625L3.1875 5.21875C2.39583 6.01042 2 6.95833 2 8.0625C2 9.14583 2.39583 10.0833 3.1875 10.875C3.97917 11.6667 4.91667 12.0625 6 12.0625ZM9.78125 4.28125C10.8229 5.32292 11.3438 6.58333 11.3438 8.0625C11.3438 9.52083 10.8229 10.7708 9.78125 11.8125C8.73958 12.8542 7.47917 13.375 6 13.375C5.39583 13.375 4.71875 13.2292 3.96875 12.9375C3.23958 12.625 2.65625 12.25 2.21875 11.8125C1.17708 10.7708 0.65625 9.52083 0.65625 8.0625C0.65625 6.58333 1.17708 5.32292 2.21875 4.28125L6 0.5L9.78125 4.28125Z" fill="#A4A4A4"/>
</svg>
