<svg width="11" height="14" viewBox="0 0 11 14" fill="none" xmlns="http://www.w3.org/2000/svg">
<path d="M3.65625 0.34375C5.51042 0.34375 7.08333 1 8.375 2.3125C9.6875 3.60417 10.3438 5.16667 10.3438 7C10.3438 8.83333 9.6875 10.4062 8.375 11.7188C7.08333 13.0104 5.51042 13.6562 3.65625 13.6562C2.44792 13.6562 1.34375 13.3646 0.34375 12.7812C1.36458 12.1979 2.16667 11.3958 2.75 10.375C3.35417 9.33333 3.65625 8.20833 3.65625 7C3.65625 5.79167 3.35417 4.67708 2.75 3.65625C2.16667 2.61458 1.36458 1.80208 0.34375 1.21875C1.34375 0.635417 2.44792 0.34375 3.65625 0.34375Z" fill="#3C4866"/>
</svg>
