<svg xmlns="http://www.w3.org/2000/svg" width="100" height="25" viewBox="0 0 1202.48 295.01"><title>docent_white</title><g id="Layer_2" data-name="Layer 2"><g id="Layer_2-2" data-name="Layer 2"><path d="M191.81,272.33a15.23,15.23,0,0,1-12.33,14.93,338.53,338.53,0,0,1-63.39,5.84C46.25,293.1,0,255.92,0,188.36,0,123.51,45.8,83.15,107.47,83.15c11.55,0,24,1.73,33.35,4.94a4.92,4.92,0,0,0,6.56-4.63V15.19A15.19,15.19,0,0,1,162.57,0h14.05a15.19,15.19,0,0,1,15.19,15.19ZM147.38,134.87a7.19,7.19,0,0,0-4.33-6.65c-8.61-3.65-19.75-5.62-32.86-5.62-37.64,0-64.84,23.58-64.84,64.85,0,43.08,28.11,67.11,71.64,67.11,7.13,0,15.66-.28,23.82-1.06a7.26,7.26,0,0,0,6.57-7.23Z" style="fill:#fff"/><path d="M316.76,83.15c60.31,0,109.78,42.63,109.78,105.21,0,62.12-49.47,104.74-109.78,104.74-59.86,0-109.33-33.88-109.33-104.74,0-71.59,49.47-105.21,109.33-105.21m0,38.55c-33.56,0-64,25.84-64,66.66,0,45.46,30.42,66.2,64,66.2,34.46,0,64.43-20.74,64.43-66.2,0-48.4-30-66.66-64.43-66.66" style="fill:#fff"/><path d="M613.6,115.22a15.16,15.16,0,0,1-20.9,14.06c-10.4-4.31-23.1-6.22-34.13-6.22-36.28,0-72.31,17.46-72.31,65.3,0,46,33.15,65.3,72.14,65.3,11.64,0,28.28-4.14,38.43-8.28a15.2,15.2,0,0,1,21,14v7.44A15.2,15.2,0,0,1,609,280.67c-15.91,7.24-38.5,12.44-56.45,12.44-61.22,0-111.59-33.89-111.59-104.75,0-76,54.62-105.21,113.57-105.21,18.59,0,35.66,3.49,50.45,10.47a15.18,15.18,0,0,1,8.66,13.73Z" style="fill:#fff"/><path d="M661.38,198.33v.91c2.72,35.82,33.56,55.32,64.85,55.32,18.11,0,32.92-2.72,46.59-8.3a15.2,15.2,0,0,1,21,14V266a15.2,15.2,0,0,1-8.07,13.43c-17.52,9.31-40.43,13.67-62.67,13.67-62.58,0-105.2-39.9-105.2-103.38,0-63.94,41.72-106.57,97-106.57,58.5,0,86.16,37.64,86.16,92.51v7.48a15.19,15.19,0,0,1-15.19,15.19Zm6.71-29h86.24a4.32,4.32,0,0,0,4.29-4.7c-2.27-28.31-17.56-43.82-45.09-43.82-24.29,0-42.57,16-49.58,43.16a4.28,4.28,0,0,0,4.14,5.36" style="fill:#fff"/><path d="M812.1,111.08a15.24,15.24,0,0,1,10.51-14.46c25.9-8.57,55.65-13.47,81.54-13.47,51.24,0,83.89,19.5,83.89,76.18v114a15.19,15.19,0,0,1-15.19,15.19H958.79a15.19,15.19,0,0,1-15.19-15.19v-110c0-29-18.14-39.45-43.08-39.45a169.61,169.61,0,0,0-31.19,2.88A15.2,15.2,0,0,0,857,141.77V273.38a15.19,15.19,0,0,1-15.19,15.19H827.29a15.19,15.19,0,0,1-15.19-15.19Z" style="fill:#fff"/><path d="M1004.32,87.69h10.53a4.66,4.66,0,0,0,4.66-4.66V53.9a15.2,15.2,0,0,1,15.2-15.19h14A15.19,15.19,0,0,1,1064,53.9V83a4.67,4.67,0,0,0,4.67,4.66h37.28a15.19,15.19,0,0,1,15.19,15.19v7.25a15.19,15.19,0,0,1-15.19,15.19h-37.28A4.67,4.67,0,0,0,1064,130v91c0,24,10.43,32.2,27.67,32.2a60.46,60.46,0,0,0,17.2-2.48,15.18,15.18,0,0,1,19.52,14.54v7.07a15.24,15.24,0,0,1-10,14.29,110.83,110.83,0,0,1-38.54,6.48c-32.64,0-60.31-16.32-60.31-62.12V130a4.66,4.66,0,0,0-4.66-4.66h-10.53a15.19,15.19,0,0,1-15.19-15.19v-7.25a15.19,15.19,0,0,1,15.19-15.19" style="fill:#fff"/><path d="M1176,242.56a26,26,0,0,0-18.78,7.67,26.32,26.32,0,0,0-7.21,18.52v.17c.09,15.17,11.14,26.14,26.28,26.09a26.09,26.09,0,0,0,26.17-26.27v-.13A26,26,0,0,0,1176,242.56" style="fill:#fb3836"/></g></g></svg>