<svg width="70" height="52" viewBox="0 0 70 52" fill="none" xmlns="http://www.w3.org/2000/svg">
<path d="M0.00348029 34.2497C0.179793 45.4974 7.40865 52 15.5191 52C23.6295 52 30.3294 45.3217 30.3294 37.2374C30.3294 29.1531 23.6295 22.299 15.5191 22.299C14.8138 22.299 13.7559 22.4747 13.0507 22.6505C14.4612 15.0934 18.869 11.4028 24.8637 6.65764C25.7453 5.95465 26.0979 5.07593 25.3926 4.19721L23.1006 1.03378C22.0427 -0.372186 20.8085 -0.19644 19.398 0.682289C6.35077 8.23935 -0.172834 23.1777 0.00348029 34.2497ZM39.674 34.2497C39.8504 45.4974 47.0792 52 55.1897 52C63.3001 52 70 45.3217 70 37.2374C70 29.1531 63.3001 22.299 55.1897 22.299C54.4844 22.299 53.4265 22.4747 52.5449 22.6505C54.1318 15.0934 58.5396 11.4028 64.5343 6.65764C65.4158 5.95465 65.5922 5.07593 64.8869 4.19721L62.5948 1.03378C61.7133 -0.372186 60.3027 -0.19644 59.0686 0.682289C46.0213 8.23935 39.4977 23.1777 39.674 34.2497Z" fill="#C4C4C4"/>
</svg>
