<svg width="36" height="36" viewBox="0 0 36 36" fill="none" xmlns="http://www.w3.org/2000/svg">
<rect width="36" height="36" rx="18" fill="#FEDDD3"/>
<path d="M18 25.5938V11.1094L13.7812 15.3281C12.5938 16.5156 12 17.9375 12 19.5938C12 21.2188 12.5938 22.625 13.7812 23.8125C14.9688 25 16.375 25.5938 18 25.5938ZM23.6719 13.9219C25.2344 15.4844 26.0156 17.375 26.0156 19.5938C26.0156 21.7812 25.2344 23.6562 23.6719 25.2188C22.1094 26.7812 20.2188 27.5625 18 27.5625C17.0938 27.5625 16.0781 27.3438 14.9531 26.9062C13.8594 26.4375 12.9844 25.875 12.3281 25.2188C10.7656 23.6562 9.98438 21.7812 9.98438 19.5938C9.98438 17.375 10.7656 15.4844 12.3281 13.9219L18 8.25L23.6719 13.9219Z" fill="#3C4866"/>
</svg>
