<svg width="41" height="41" viewBox="0 0 41 41" fill="none" xmlns="http://www.w3.org/2000/svg">
<circle cx="20.5" cy="20.5" r="20.5" fill="#D69029" fill-opacity="0.2"/>
<path d="M15.7031 24.1406C17.5469 23.3906 19.3125 23.0156 21 23.0156C22.6875 23.0156 24.4375 23.3906 26.25 24.1406C28.0938 24.8594 29.0156 25.8125 29.0156 27V29.0156H12.9844V27C12.9844 25.8125 13.8906 24.8594 15.7031 24.1406ZM23.8125 19.8281C23.0312 20.6094 22.0938 21 21 21C19.9062 21 18.9688 20.6094 18.1875 19.8281C17.4062 19.0469 17.0156 18.1094 17.0156 17.0156C17.0156 15.9219 17.4062 14.9844 18.1875 14.2031C18.9688 13.3906 19.9062 12.9844 21 12.9844C22.0938 12.9844 23.0312 13.3906 23.8125 14.2031C24.5938 14.9844 24.9844 15.9219 24.9844 17.0156C24.9844 18.1094 24.5938 19.0469 23.8125 19.8281Z" fill="white"/>
</svg>
