<svg width="32" height="32" viewBox="0 0 32 32" fill="none" xmlns="http://www.w3.org/2000/svg">
<path d="M9.33268 29.3332H5.33268C4.62544 29.3332 3.94716 29.0522 3.44706 28.5521C2.94697 28.052 2.66602 27.3737 2.66602 26.6665V17.3332C2.66602 16.6259 2.94697 15.9477 3.44706 15.4476C3.94716 14.9475 4.62544 14.6665 5.33268 14.6665H9.33268M18.666 11.9998V6.6665C18.666 5.60564 18.2446 4.58822 17.4944 3.83808C16.7443 3.08793 15.7269 2.6665 14.666 2.6665L9.33268 14.6665V29.3332H24.3727C25.0158 29.3404 25.6399 29.115 26.1299 28.6985C26.6199 28.282 26.9429 27.7024 27.0394 27.0665L28.8793 15.0665C28.9374 14.6843 28.9116 14.2941 28.8038 13.9228C28.696 13.5516 28.5088 13.2082 28.2552 12.9165C28.0015 12.6248 27.6875 12.3917 27.3348 12.2335C26.9821 12.0752 26.5992 11.9955 26.2127 11.9998H18.666Z" stroke="#495057" stroke-width="2" stroke-linecap="round" stroke-linejoin="round"/>
</svg>
