<svg width="32" height="33" viewBox="0 0 32 33" fill="none" xmlns="http://www.w3.org/2000/svg">
<g id="thumbs-down">
<path id="Vector" d="M22.6667 3.00048H26.2267C26.9813 2.98714 27.7146 3.25133 28.2873 3.74291C28.8599 4.23448 29.2322 4.91923 29.3334 5.66715V15.0005C29.2322 15.7484 28.8599 16.4331 28.2873 16.9247C27.7146 17.4163 26.9813 17.6805 26.2267 17.6671H22.6667M13.3334 20.3338V25.6672C13.3334 26.728 13.7548 27.7454 14.5049 28.4956C15.2551 29.2457 16.2725 29.6672 17.3334 29.6672L22.6667 17.6671V3.00048H7.62671C6.9836 2.99321 6.35954 3.21861 5.8695 3.63514C5.37946 4.05167 5.05647 4.63127 4.96004 5.26715L3.12004 17.2671C3.06203 17.6493 3.08781 18.0396 3.19559 18.4108C3.30337 18.7821 3.49057 19.1254 3.74423 19.4171C3.99789 19.7088 4.31193 19.9419 4.66461 20.1002C5.01729 20.2585 5.40016 20.3382 5.78671 20.3338H13.3334Z" stroke="#FF1E00" stroke-width="2" stroke-linecap="round" stroke-linejoin="round"/>
</g>
</svg>
