<svg width="40" height="40" viewBox="0 0 40 40" fill="none" xmlns="http://www.w3.org/2000/svg">
<path d="M24.2188 15.7812C25.4062 16.9688 26 18.375 26 20C26 21.625 25.4062 23.0312 24.2188 24.2188C23.0312 25.4062 21.625 26 20 26C18.375 26 16.9688 25.4062 15.7812 24.2188C14.5938 23.0312 14 21.625 14 20C14 18.375 14.5938 16.9688 15.7812 15.7812C16.9688 14.5938 18.375 14 20 14C21.625 14 23.0312 14.5938 24.2188 15.7812ZM8.65625 31.3438C11.8438 34.4688 15.625 36.0312 20 36.0312C24.375 36.0312 28.125 34.4688 31.25 31.3438C34.4375 28.1562 36.0312 24.375 36.0312 20C36.0312 15.625 34.4375 11.875 31.25 8.75C28.125 5.5625 24.375 3.96875 20 3.96875C15.625 3.96875 11.8438 5.5625 8.65625 8.75C5.53125 11.875 3.96875 15.625 3.96875 20C3.96875 24.375 5.53125 28.1562 8.65625 31.3438ZM5.84375 5.9375C9.78125 2 14.5 0.03125 20 0.03125C25.5 0.03125 30.1875 2 34.0625 5.9375C38 9.8125 39.9688 14.5 39.9688 20C39.9688 25.5 38 30.2188 34.0625 34.1562C30.1875 38.0312 25.5 39.9688 20 39.9688C14.5 39.9688 9.78125 38.0312 5.84375 34.1562C1.96875 30.2188 0.03125 25.5 0.03125 20C0.03125 14.5 1.96875 9.8125 5.84375 5.9375Z"/>
</svg>
