<svg width="49" height="48" viewBox="0 0 49 48" fill="none" xmlns="http://www.w3.org/2000/svg">
<path d="M34.5 33.9798C31.8 33.9798 30.1 34.8198 28.6 35.5798C27.3 36.2398 26.24 36.7798 24.5 36.7798C22.7 36.7798 21.7 36.2798 20.4 35.5798C18.9 34.8198 17.26 33.9798 14.5 33.9798C11.74 33.9798 10.1 34.8198 8.6 35.5798C7.3 36.2398 6.26 36.7798 4.5 36.7798V40.6798C7.2 40.6798 8.9 39.8398 10.4 39.0798C11.7 38.4198 12.74 37.8798 14.5 37.8798C16.26 37.8798 17.3 38.3798 18.6 39.0798C20.1 39.8398 21.74 40.6798 24.5 40.6798C27.26 40.6798 28.9 39.8398 30.4 39.0798C31.7 38.4198 32.76 37.8798 34.5 37.8798C36.3 37.8798 37.3 38.3798 38.6 39.0798C40.1 39.8398 41.76 40.6798 44.5 40.6798V36.7798C42.7 36.7798 41.7 36.2798 40.4 35.5798C38.9 34.8198 37.2 33.9798 34.5 33.9798ZM34.5 25.0798C31.8 25.0798 30.1 25.9398 28.6 26.6798C27.3 27.3198 26.24 27.8798 24.5 27.8798C22.7 27.8798 21.7 27.3798 20.4 26.6798C18.9 25.9198 17.26 25.0798 14.5 25.0798C11.74 25.0798 10.1 25.9398 8.6 26.6798C7.3 27.3198 6.26 27.8798 4.5 27.8798V31.7798C7.2 31.7798 8.9 30.9198 10.4 30.1798C11.7 29.4798 12.7 28.9798 14.5 28.9798C16.3 28.9798 17.3 29.4798 18.6 30.1798C20.1 30.9398 21.74 31.7798 24.5 31.7798C27.26 31.7798 28.9 30.9198 30.4 30.1798C31.7 29.4798 32.7 28.9798 34.5 28.9798C36.3 28.9798 37.3 29.4798 38.6 30.1798C40.1 30.9398 41.76 31.7798 44.5 31.7798V27.8798C42.7 27.8798 41.7 27.3798 40.4 26.6798C38.9 25.9198 37.2 25.0798 34.5 25.0798ZM40.4 8.91982C38.9 8.15982 37.24 7.31982 34.5 7.31982C31.76 7.31982 30.1 8.15982 28.6 8.91982C27.3 9.55982 26.24 10.1198 24.5 10.1198C22.7 10.1198 21.7 9.61982 20.4 8.91982C18.9 8.17982 17.26 7.31982 14.5 7.31982C11.74 7.31982 10.1 8.15982 8.6 8.91982C7.3 9.57982 6.26 10.1198 4.5 10.1198V13.9798C7.2 13.9798 8.9 13.1198 10.4 12.3798C11.7 11.7198 12.74 11.1798 14.5 11.1798C16.26 11.1798 17.3 11.6798 18.6 12.3798C20.1 13.1398 21.74 13.9798 24.5 13.9798C27.26 13.9798 28.9 13.1198 30.4 12.3798C31.7 11.7398 32.76 11.1798 34.5 11.1798C36.3 11.1798 37.3 11.6798 38.6 12.3798C40.1 13.1398 41.76 13.9798 44.5 13.9798V10.0798C42.7 10.0798 41.7 9.57982 40.4 8.91982ZM34.5 16.1798C31.8 16.1798 30.1 17.0398 28.6 17.7798C27.3 18.4798 26.3 18.9798 24.5 18.9798C22.7 18.9798 21.7 18.4798 20.4 17.7798C18.9 17.0198 17.26 16.1798 14.5 16.1798C11.74 16.1798 10.1 17.0398 8.6 17.7798C7.3 18.4798 6.3 18.9798 4.5 18.9798V22.8798C7.2 22.8798 8.9 22.0198 10.4 21.2798C11.7 20.6398 12.76 20.0798 14.5 20.0798C16.24 20.0798 17.3 20.5798 18.6 21.2798C20.1 22.0398 21.74 22.8798 24.5 22.8798C27.26 22.8798 28.9 22.0198 30.4 21.2798C31.7 20.6398 32.76 20.0798 34.5 20.0798C36.3 20.0798 37.3 20.5798 38.6 21.2798C40.1 22.0398 41.76 22.8798 44.5 22.8798V18.9798C42.7 18.9798 41.7 18.4798 40.4 17.7798C38.9 17.0198 37.2 16.1798 34.5 16.1798Z"/>
</svg>
