<svg width="46" height="24" viewBox="0 0 46 24" fill="none" xmlns="http://www.w3.org/2000/svg">
<path d="M27.3125 17.625C28.9375 19.1875 30.8438 19.9688 33.0312 19.9688C35.2188 19.9688 37.0938 19.1875 38.6562 17.625C40.2188 16.0625 41 14.1875 41 12C41 9.8125 40.2188 7.9375 38.6562 6.375C37.0938 4.8125 35.2188 4.03125 33.0312 4.03125C30.8438 4.03125 28.9375 4.8125 27.3125 6.375C25.75 7.9375 24.9688 9.8125 24.9688 12C24.9688 14.1875 25.75 16.0625 27.3125 17.625ZM24.5 3.5625C26.875 1.1875 29.7188 0 33.0312 0C36.3438 0 39.1562 1.1875 41.4688 3.5625C43.8438 5.875 45.0312 8.6875 45.0312 12C45.0312 15.3125 43.8438 18.1562 41.4688 20.5312C39.1562 22.8438 36.3438 24 33.0312 24C29.7188 24 26.875 22.8438 24.5 20.5312C22.1875 18.1562 21.0312 15.3125 21.0312 12C21.0312 8.6875 22.1875 5.875 24.5 3.5625ZM3.3125 6.375C4.9375 4.8125 6.84375 4.03125 9.03125 4.03125C11.2188 4.03125 13.0938 4.8125 14.6562 6.375C16.2188 7.9375 17 9.8125 17 12C17 14.1875 16.2188 16.0625 14.6562 17.625C13.0938 19.1875 11.2188 19.9688 9.03125 19.9688C6.84375 19.9688 4.9375 19.1875 3.3125 17.625C1.75 16.0625 0.96875 14.1875 0.96875 12C0.96875 9.8125 1.75 7.9375 3.3125 6.375Z"/>
</svg>
