<svg width="40" height="40" viewBox="0 0 40 40" fill="none" xmlns="http://www.w3.org/2000/svg">
<path d="M21.875 13.9062C22.5 13.2812 23.2188 12.9688 24.0312 12.9688C24.8438 12.9688 25.5312 13.2812 26.0938 13.9062C26.7188 14.4688 27.0312 15.1562 27.0312 15.9688C27.0312 16.7812 26.7188 17.5 26.0938 18.125C25.5312 18.6875 24.8438 18.9688 24.0312 18.9688C23.2188 18.9688 22.5 18.6875 21.875 18.125C21.3125 17.5 21.0312 16.7812 21.0312 15.9688C21.0312 15.1562 21.3125 14.4688 21.875 13.9062ZM21.875 21.9688C22.5 21.3438 23.2188 21.0312 24.0312 21.0312C24.8438 21.0312 25.5312 21.3438 26.0938 21.9688C26.7188 22.5312 27.0312 23.2188 27.0312 24.0312C27.0312 24.8438 26.7188 25.5625 26.0938 26.1875C25.5312 26.75 24.8438 27.0312 24.0312 27.0312C23.2188 27.0312 22.5 26.75 21.875 26.1875C21.3125 25.5625 21.0312 24.8438 21.0312 24.0312C21.0312 23.2188 21.3125 22.5312 21.875 21.9688ZM14.5625 30.5938C14.9375 30.2188 15.4062 30.0312 15.9688 30.0312C16.5312 30.0312 17 30.2188 17.375 30.5938C17.8125 30.9688 18.0312 31.4375 18.0312 32C18.0312 32.5625 17.8125 33.0312 17.375 33.4062C17 33.7812 16.5312 33.9688 15.9688 33.9688C15.4062 33.9688 14.9375 33.7812 14.5625 33.4062C14.1875 33.0312 14 32.5625 14 32C14 31.4375 14.1875 30.9688 14.5625 30.5938ZM13.8125 13.9062C14.4375 13.2812 15.1562 12.9688 15.9688 12.9688C16.7812 12.9688 17.4688 13.2812 18.0312 13.9062C18.6562 14.4688 18.9688 15.1562 18.9688 15.9688C18.9688 16.7812 18.6562 17.5 18.0312 18.125C17.4688 18.6875 16.7812 18.9688 15.9688 18.9688C15.1562 18.9688 14.4375 18.6875 13.8125 18.125C13.25 17.5 12.9688 16.7812 12.9688 15.9688C12.9688 15.1562 13.25 14.4688 13.8125 13.9062ZM24.0312 36.9688C24.6562 36.9688 24.9688 37.3125 24.9688 38C24.9688 38.6875 24.6562 39.0312 24.0312 39.0312C23.3438 39.0312 23 38.6875 23 38C23 37.3125 23.3438 36.9688 24.0312 36.9688ZM22.5312 30.5938C22.9688 30.2188 23.4688 30.0312 24.0312 30.0312C24.5938 30.0312 25.0625 30.2188 25.4375 30.5938C25.8125 30.9688 26 31.4375 26 32C26 32.5625 25.8125 33.0312 25.4375 33.4062C25.0625 33.7812 24.5938 33.9688 24.0312 33.9688C23.4688 33.9688 22.9688 33.7812 22.5312 33.4062C22.1562 33.0312 21.9688 32.5625 21.9688 32C21.9688 31.4375 22.1562 30.9688 22.5312 30.5938ZM36.9688 24.0312C36.9688 23.3438 37.3125 23 38 23C38.6875 23 39.0312 23.3438 39.0312 24.0312C39.0312 24.6562 38.6875 24.9688 38 24.9688C37.3125 24.9688 36.9688 24.6562 36.9688 24.0312ZM30.5938 6.59375C30.9688 6.21875 31.4375 6.03125 32 6.03125C32.5625 6.03125 33.0312 6.21875 33.4062 6.59375C33.7812 6.96875 33.9688 7.4375 33.9688 8C33.9688 8.5625 33.7812 9.03125 33.4062 9.40625C33.0312 9.78125 32.5625 9.96875 32 9.96875C31.4375 9.96875 30.9688 9.78125 30.5938 9.40625C30.2188 9.03125 30.0312 8.5625 30.0312 8C30.0312 7.4375 30.2188 6.96875 30.5938 6.59375ZM30.5938 14.5625C30.9688 14.1875 31.4375 14 32 14C32.5625 14 33.0312 14.1875 33.4062 14.5625C33.7812 14.9375 33.9688 15.4062 33.9688 15.9688C33.9688 16.5312 33.7812 17.0312 33.4062 17.4688C33.0312 17.8438 32.5625 18.0312 32 18.0312C31.4375 18.0312 30.9688 17.8438 30.5938 17.4688C30.2188 17.0312 30.0312 16.5312 30.0312 15.9688C30.0312 15.4062 30.2188 14.9375 30.5938 14.5625ZM30.5938 30.5938C30.9688 30.2188 31.4375 30.0312 32 30.0312C32.5625 30.0312 33.0312 30.2188 33.4062 30.5938C33.7812 30.9688 33.9688 31.4375 33.9688 32C33.9688 32.5625 33.7812 33.0312 33.4062 33.4062C33.0312 33.7812 32.5625 33.9688 32 33.9688C31.4375 33.9688 30.9688 33.7812 30.5938 33.4062C30.2188 33.0312 30.0312 32.5625 30.0312 32C30.0312 31.4375 30.2188 30.9688 30.5938 30.5938ZM30.5938 22.625C30.9688 22.1875 31.4375 21.9688 32 21.9688C32.5625 21.9688 33.0312 22.1875 33.4062 22.625C33.7812 23 33.9688 23.4688 33.9688 24.0312C33.9688 24.5938 33.7812 25.0625 33.4062 25.4375C33.0312 25.8125 32.5625 26 32 26C31.4375 26 30.9688 25.8125 30.5938 25.4375C30.2188 25.0625 30.0312 24.5938 30.0312 24.0312C30.0312 23.4688 30.2188 23 30.5938 22.625ZM13.8125 21.9688C14.4375 21.3438 15.1562 21.0312 15.9688 21.0312C16.7812 21.0312 17.4688 21.3438 18.0312 21.9688C18.6562 22.5312 18.9688 23.2188 18.9688 24.0312C18.9688 24.8438 18.6562 25.5625 18.0312 26.1875C17.4688 26.75 16.7812 27.0312 15.9688 27.0312C15.1562 27.0312 14.4375 26.75 13.8125 26.1875C13.25 25.5625 12.9688 24.8438 12.9688 24.0312C12.9688 23.2188 13.25 22.5312 13.8125 21.9688ZM17.375 9.40625C17 9.78125 16.5312 9.96875 15.9688 9.96875C15.4062 9.96875 14.9375 9.78125 14.5625 9.40625C14.1875 9.03125 14 8.5625 14 8C14 7.4375 14.1875 6.96875 14.5625 6.59375C14.9375 6.21875 15.4062 6.03125 15.9688 6.03125C16.5312 6.03125 17 6.21875 17.375 6.59375C17.8125 6.96875 18.0312 7.4375 18.0312 8C18.0312 8.5625 17.8125 9.03125 17.375 9.40625ZM15.9688 3.03125C15.3438 3.03125 15.0312 2.6875 15.0312 2C15.0312 1.3125 15.3438 0.96875 15.9688 0.96875C16.6562 0.96875 17 1.3125 17 2C17 2.6875 16.6562 3.03125 15.9688 3.03125ZM15.9688 36.9688C16.6562 36.9688 17 37.3125 17 38C17 38.6875 16.6562 39.0312 15.9688 39.0312C15.3438 39.0312 15.0312 38.6875 15.0312 38C15.0312 37.3125 15.3438 36.9688 15.9688 36.9688ZM0.96875 24.0312C0.96875 23.3438 1.3125 23 2 23C2.6875 23 3.03125 23.3438 3.03125 24.0312C3.03125 24.6562 2.6875 24.9688 2 24.9688C1.3125 24.9688 0.96875 24.6562 0.96875 24.0312ZM24.0312 3.03125C23.3438 3.03125 23 2.6875 23 2C23 1.3125 23.3438 0.96875 24.0312 0.96875C24.6562 0.96875 24.9688 1.3125 24.9688 2C24.9688 2.6875 24.6562 3.03125 24.0312 3.03125ZM25.4375 9.40625C25.0625 9.78125 24.5938 9.96875 24.0312 9.96875C23.4688 9.96875 22.9688 9.78125 22.5312 9.40625C22.1562 9.03125 21.9688 8.5625 21.9688 8C21.9688 7.4375 22.1562 6.96875 22.5312 6.59375C22.9688 6.21875 23.4688 6.03125 24.0312 6.03125C24.5938 6.03125 25.0625 6.21875 25.4375 6.59375C25.8125 6.96875 26 7.4375 26 8C26 8.5625 25.8125 9.03125 25.4375 9.40625ZM39.0312 15.9688C39.0312 16.6562 38.6875 17 38 17C37.3125 17 36.9688 16.6562 36.9688 15.9688C36.9688 15.3438 37.3125 15.0312 38 15.0312C38.6875 15.0312 39.0312 15.3438 39.0312 15.9688ZM6.59375 6.59375C6.96875 6.21875 7.4375 6.03125 8 6.03125C8.5625 6.03125 9.03125 6.21875 9.40625 6.59375C9.78125 6.96875 9.96875 7.4375 9.96875 8C9.96875 8.5625 9.78125 9.03125 9.40625 9.40625C9.03125 9.78125 8.5625 9.96875 8 9.96875C7.4375 9.96875 6.96875 9.78125 6.59375 9.40625C6.21875 9.03125 6.03125 8.5625 6.03125 8C6.03125 7.4375 6.21875 6.96875 6.59375 6.59375ZM0.96875 15.9688C0.96875 15.3438 1.3125 15.0312 2 15.0312C2.6875 15.0312 3.03125 15.3438 3.03125 15.9688C3.03125 16.6562 2.6875 17 2 17C1.3125 17 0.96875 16.6562 0.96875 15.9688ZM6.59375 14.5625C6.96875 14.1875 7.4375 14 8 14C8.5625 14 9.03125 14.1875 9.40625 14.5625C9.78125 14.9375 9.96875 15.4062 9.96875 15.9688C9.96875 16.5312 9.78125 17.0312 9.40625 17.4688C9.03125 17.8438 8.5625 18.0312 8 18.0312C7.4375 18.0312 6.96875 17.8438 6.59375 17.4688C6.21875 17.0312 6.03125 16.5312 6.03125 15.9688C6.03125 15.4062 6.21875 14.9375 6.59375 14.5625ZM6.59375 30.5938C6.96875 30.2188 7.4375 30.0312 8 30.0312C8.5625 30.0312 9.03125 30.2188 9.40625 30.5938C9.78125 30.9688 9.96875 31.4375 9.96875 32C9.96875 32.5625 9.78125 33.0312 9.40625 33.4062C9.03125 33.7812 8.5625 33.9688 8 33.9688C7.4375 33.9688 6.96875 33.7812 6.59375 33.4062C6.21875 33.0312 6.03125 32.5625 6.03125 32C6.03125 31.4375 6.21875 30.9688 6.59375 30.5938ZM6.59375 22.625C6.96875 22.1875 7.4375 21.9688 8 21.9688C8.5625 21.9688 9.03125 22.1875 9.40625 22.625C9.78125 23 9.96875 23.4688 9.96875 24.0312C9.96875 24.5938 9.78125 25.0625 9.40625 25.4375C9.03125 25.8125 8.5625 26 8 26C7.4375 26 6.96875 25.8125 6.59375 25.4375C6.21875 25.0625 6.03125 24.5938 6.03125 24.0312C6.03125 23.4688 6.21875 23 6.59375 22.625Z"/>
</svg>
