<svg width="34" height="34" viewBox="0 0 34 34" fill="none" xmlns="http://www.w3.org/2000/svg">
<path d="M10.1562 2.1875C10.9688 1.375 11.9062 0.96875 12.9688 0.96875C14.0312 0.96875 14.9688 1.375 15.7812 2.1875C16.5938 3 17 3.9375 17 5C17 6.0625 16.5938 7 15.7812 7.8125C14.9688 8.625 14.0312 9.03125 12.9688 9.03125C11.9062 9.03125 10.9688 8.625 10.1562 7.8125C9.40625 7 9.03125 6.0625 9.03125 5C9.03125 3.9375 9.40625 3 10.1562 2.1875ZM18.2188 10.25C19.0312 9.4375 19.9688 9.03125 21.0312 9.03125C22.0938 9.03125 23 9.4375 23.75 10.25C24.5625 11 24.9688 11.9062 24.9688 12.9688C24.9688 14.0312 24.5625 14.9688 23.75 15.7812C23 16.5938 22.0938 17 21.0312 17C19.9688 17 19.0312 16.5938 18.2188 15.7812C17.4062 14.9688 17 14.0312 17 12.9688C17 11.9062 17.4062 11 18.2188 10.25ZM26.1875 18.2188C27 17.4062 27.9375 17 29 17C30.0625 17 31 17.4062 31.8125 18.2188C32.625 19.0312 33.0312 19.9688 33.0312 21.0312C33.0312 22.0938 32.625 23.0312 31.8125 23.8438C31 24.5938 30.0625 24.9688 29 24.9688C27.9375 24.9688 27 24.5938 26.1875 23.8438C25.375 23.0312 24.9688 22.0938 24.9688 21.0312C24.9688 19.9688 25.375 19.0312 26.1875 18.2188ZM18.2188 26.1875C19.0312 25.375 19.9688 24.9688 21.0312 24.9688C22.0938 24.9688 23 25.375 23.75 26.1875C24.5625 27 24.9688 27.9375 24.9688 29C24.9688 30.0625 24.5625 31 23.75 31.8125C23 32.625 22.0938 33.0312 21.0312 33.0312C19.9688 33.0312 19.0312 32.625 18.2188 31.8125C17.4062 31 17 30.0625 17 29C17 27.9375 17.4062 27 18.2188 26.1875ZM31.8125 7.8125C31 8.625 30.0625 9.03125 29 9.03125C27.9375 9.03125 27 8.625 26.1875 7.8125C25.375 7 24.9688 6.0625 24.9688 5C24.9688 3.9375 25.375 3 26.1875 2.1875C27 1.375 27.9375 0.96875 29 0.96875C30.0625 0.96875 31 1.375 31.8125 2.1875C32.625 3 33.0312 3.9375 33.0312 5C33.0312 6.0625 32.625 7 31.8125 7.8125ZM2.1875 26.1875C3 25.375 3.9375 24.9688 5 24.9688C6.0625 24.9688 7 25.375 7.8125 26.1875C8.625 27 9.03125 27.9375 9.03125 29C9.03125 30.0625 8.625 31 7.8125 31.8125C7 32.625 6.0625 33.0312 5 33.0312C3.9375 33.0312 3 32.625 2.1875 31.8125C1.375 31 0.96875 30.0625 0.96875 29C0.96875 27.9375 1.375 27 2.1875 26.1875ZM2.1875 10.25C3 9.4375 3.9375 9.03125 5 9.03125C6.0625 9.03125 7 9.4375 7.8125 10.25C8.625 11 9.03125 11.9062 9.03125 12.9688C9.03125 14.0312 8.625 14.9688 7.8125 15.7812C7 16.5938 6.0625 17 5 17C3.9375 17 3 16.5938 2.1875 15.7812C1.375 14.9688 0.96875 14.0312 0.96875 12.9688C0.96875 11.9062 1.375 11 2.1875 10.25ZM10.1562 18.2188C10.9688 17.4062 11.9062 17 12.9688 17C14.0312 17 14.9688 17.4062 15.7812 18.2188C16.5938 19.0312 17 19.9688 17 21.0312C17 22.0938 16.5938 23.0312 15.7812 23.8438C14.9688 24.5938 14.0312 24.9688 12.9688 24.9688C11.9062 24.9688 10.9688 24.5938 10.1562 23.8438C9.40625 23.0312 9.03125 22.0938 9.03125 21.0312C9.03125 19.9688 9.40625 19.0312 10.1562 18.2188Z"/>
</svg>
