<svg width="37" height="36" viewBox="0 0 37 36" fill="none" xmlns="http://www.w3.org/2000/svg">
<path d="M13.0625 36L36.5 12.5625V18.2812L18.7812 36H13.0625ZM36.5 31.9688C36.5 33.0312 36.0938 33.9688 35.2812 34.7812C34.4688 35.5938 33.5312 36 32.4688 36H28.5312L36.5 28.0312V31.9688ZM4.53125 0H8.46875L0.5 7.96875V4.03125C0.5 2.96875 0.90625 2.03125 1.71875 1.21875C2.53125 0.40625 3.46875 0 4.53125 0ZM18.2188 0H23.9375L0.5 23.4375V17.7188L18.2188 0ZM33.5 0.1875C35.0625 0.625 36.0312 1.5625 36.4062 3L3.5 35.8125C2.0625 35.375 1.125 34.4375 0.6875 33L33.5 0.1875Z"/>
</svg>
