<svg width="36" height="34" viewBox="0 0 36 34" fill="none" xmlns="http://www.w3.org/2000/svg">
<path d="M0 0.96875H36V9.03125H0V0.96875ZM19.9688 17V12.9688H36V17H19.9688ZM0 17V12.9688H16.0312V17H0ZM31.9688 33.0312V29H36V33.0312H31.9688ZM24 33.0312V29H28.0312V33.0312H24ZM16.0312 33.0312V29H19.9688V33.0312H16.0312ZM7.96875 33.0312V29H12V33.0312H7.96875ZM0 33.0312V29H4.03125V33.0312H0ZM25.9688 24.9688V21.0312H36V24.9688H25.9688ZM13.0312 24.9688V21.0312H22.9688V24.9688H13.0312ZM0 24.9688V21.0312H10.0312V24.9688H0Z"/>
</svg>
