<svg width="36" height="32" viewBox="0 0 36 32" fill="none" xmlns="http://www.w3.org/2000/svg">
<g clip-path="url(#clip0_11093_15676)">
<path d="M35.1129 31.1336L34.8318 30.8908C32.9576 29.0421 31.0961 27.1807 29.2474 25.3064C29.1692 25.2236 29.0737 25.1589 28.9677 25.1169C28.8617 25.075 28.7478 25.0568 28.6341 25.0636H11.4592C10.957 25.0936 10.455 25.0011 9.99644 24.7941C9.53788 24.5871 9.13648 24.2717 8.8268 23.8752C8.39225 23.318 8.16623 22.6263 8.18786 21.92V17.703H5.69598C5.56998 17.7415 5.45859 17.8172 5.37651 17.9202L1.13392 22.0989L0.814451 22.3928V22.0989C0.814451 15.8714 0.814451 9.65657 0.814451 3.45456C0.770102 2.74989 0.978703 2.05252 1.40272 1.48795C1.82673 0.92338 2.43832 0.528672 3.12743 0.374853C3.43993 0.291795 3.76256 0.25308 4.08584 0.259843H23.0752C23.6879 0.21138 24.3006 0.352031 24.8308 0.662813C25.3609 0.973595 25.783 1.43954 26.0399 1.99777C26.2218 2.44925 26.3214 2.92965 26.3339 3.41622C26.3339 4.24685 26.3339 5.09026 26.3339 5.972V6.34259H31.816C32.3155 6.3206 32.8124 6.42643 33.2596 6.65004C33.7068 6.87365 34.0896 7.20766 34.3718 7.62047C34.6269 8.07142 34.8366 8.54657 34.9979 9.03893L35.1129 31.1336ZM33.0939 26.3287V20.4888C33.0939 16.8213 33.0939 13.1409 33.0939 9.47341C33.115 9.2564 33.0671 9.03826 32.957 8.85009C32.8468 8.66192 32.6801 8.51334 32.4805 8.42554C32.2798 8.35333 32.0676 8.31868 31.8543 8.32331H11.1781C11.0427 8.32477 10.9091 8.35379 10.7853 8.40859C10.6615 8.4634 10.5502 8.54286 10.4581 8.6421C10.366 8.74135 10.2951 8.85831 10.2498 8.98586C10.2044 9.1134 10.1855 9.24886 10.1941 9.38396V21.9967C10.1851 22.1345 10.2051 22.2726 10.2529 22.4022C10.3007 22.5317 10.3752 22.6497 10.4717 22.7486C10.5681 22.8474 10.6842 22.9248 10.8126 22.9758C10.9409 23.0268 11.0785 23.0503 11.2165 23.0446H29.4647C29.5793 23.0402 29.6936 23.0608 29.7995 23.1049C29.9054 23.1491 30.0004 23.2157 30.0781 23.3001C31.0493 24.2969 32.0205 25.2681 33.0939 26.3287ZM24.3531 6.31703C24.3531 6.17646 24.3531 6.08701 24.3531 5.98478V3.429C24.3763 3.27036 24.3624 3.10848 24.3124 2.95615C24.2623 2.80382 24.1776 2.66519 24.0649 2.55119C23.9521 2.4372 23.8144 2.35096 23.6626 2.29927C23.5109 2.24758 23.3491 2.23186 23.1903 2.25335H4.02195C3.86209 2.22965 3.6989 2.24372 3.54545 2.29443C3.392 2.34513 3.25255 2.43106 3.13828 2.54533C3.024 2.65961 2.93807 2.79905 2.88737 2.9525C2.83667 3.10595 2.8226 3.26914 2.84629 3.429V17.2557C2.84629 17.358 2.84629 17.4474 2.84629 17.6008L4.57144 15.8884C4.69811 15.7751 4.86155 15.7116 5.03148 15.7095H8.18786V9.48619C8.17409 8.98792 8.28352 8.49396 8.50644 8.04812C8.72936 7.60229 9.05887 7.21836 9.46575 6.93041C10.0704 6.4957 10.8049 6.27941 11.5487 6.31703H24.3531Z" fill="#3C4866"/>
<path d="M12.2266 12.3491H31.0754V14.3171H12.2266V12.3491Z" fill="#3C4866"/>
<path d="M27.0628 16.3872V18.3424H12.2266V16.3872H27.0628Z" fill="#3C4866"/>
</g>
<defs>
<clipPath id="clip0_11093_15676">
<rect width="34.2857" height="30.8482" fill="white" transform="translate(0.814453 0.285645)"/>
</clipPath>
</defs>
</svg>
