<svg width="56" height="56" viewBox="0 0 56 56" fill="none" xmlns="http://www.w3.org/2000/svg">
<rect width="56" height="56" rx="28" fill="#3C4866" fill-opacity="0.12"/>
<path d="M31.0234 29.4766H35.5234L28 22.0234L20.4766 29.4766H24.9766V35.5234H31.0234V29.4766ZM39.0391 25.0469C40.9609 25.1875 42.6016 25.9844 43.9609 27.4375C45.3203 28.8438 46 30.5312 46 32.5C46 34.5625 45.25 36.3438 43.75 37.8438C42.2969 39.2969 40.5391 40.0234 38.4766 40.0234H19C16.5156 40.0234 14.3828 39.1562 12.6016 37.4219C10.8672 35.6406 10 33.5078 10 31.0234C10 28.8203 10.7734 26.8516 12.3203 25.1172C13.9141 23.3359 15.8125 22.3281 18.0156 22.0938C19 20.2656 20.3828 18.7891 22.1641 17.6641C23.9453 16.5391 25.8906 15.9766 28 15.9766C30.5312 15.9766 32.875 16.8672 35.0312 18.6484C37.2344 20.4297 38.5703 22.5625 39.0391 25.0469Z" fill="#3C4866"/>
</svg>
